<svg width="865" height="477" viewBox="0 0 865 477" fill="none" xmlns="http://www.w3.org/2000/svg">
<mask id="mask0_1254_51558" style="mask-type:alpha" maskUnits="userSpaceOnUse" x="-45" y="38" width="955" height="401">
<rect x="-45" y="38" width="955" height="401" fill="url(#paint0_radial_1254_51558)"/>
</mask>
<g mask="url(#mask0_1254_51558)">
<path d="M864.5 13.5L864.5 463.5" stroke="#89929F" stroke-width="0.375"/>
<path d="M846.5 13.5L846.5 463.5" stroke="#89929F" stroke-width="0.375"/>
<path d="M828.5 13.5L828.5 463.5" stroke="#89929F" stroke-width="0.375"/>
<path d="M810.5 13.5L810.5 463.5" stroke="#89929F" stroke-width="0.375"/>
<path d="M792.5 13.5L792.5 463.5" stroke="#89929F" stroke-width="0.375"/>
<path d="M774.5 13.5L774.5 463.5" stroke="#89929F" stroke-width="0.375"/>
<path d="M756.5 13.5L756.5 463.5" stroke="#89929F" stroke-width="0.375"/>
<path d="M738.5 13.5L738.5 463.5" stroke="#89929F" stroke-width="0.375"/>
<path d="M720.5 13.5L720.5 463.5" stroke="#89929F" stroke-width="0.375"/>
<path d="M702.5 13.5L702.5 463.5" stroke="#89929F" stroke-width="0.375"/>
<path d="M684.5 13.5L684.5 463.5" stroke="#89929F" stroke-width="0.375"/>
<path d="M666.5 13.5L666.5 463.5" stroke="#89929F" stroke-width="0.375"/>
<path d="M648.5 13.5L648.5 463.5" stroke="#89929F" stroke-width="0.375"/>
<path d="M630.5 13.5L630.5 463.5" stroke="#89929F" stroke-width="0.375"/>
<path d="M612.5 13.5L612.5 463.5" stroke="#89929F" stroke-width="0.375"/>
<path d="M594.5 13.5L594.5 463.5" stroke="#89929F" stroke-width="0.375"/>
<path d="M576.5 13.5L576.5 463.5" stroke="#89929F" stroke-width="0.375"/>
<path d="M558.5 13.5L558.5 463.5" stroke="#89929F" stroke-width="0.375"/>
<path d="M540.5 13.5L540.5 463.5" stroke="#89929F" stroke-width="0.375"/>
<path d="M522.5 13.5L522.5 463.5" stroke="#89929F" stroke-width="0.375"/>
<path d="M504.5 13.5L504.5 463.5" stroke="#89929F" stroke-width="0.375"/>
<path d="M486.5 13.5L486.5 463.5" stroke="#89929F" stroke-width="0.375"/>
<path d="M468.5 13.5L468.5 463.5" stroke="#89929F" stroke-width="0.375"/>
<path d="M450.5 13.5L450.5 463.5" stroke="#89929F" stroke-width="0.375"/>
<path d="M432.5 13.5L432.5 463.5" stroke="#89929F" stroke-width="0.375"/>
<path d="M414.5 13.5L414.5 463.5" stroke="#89929F" stroke-width="0.375"/>
<path d="M396.5 13.5L396.5 463.5" stroke="#89929F" stroke-width="0.375"/>
<path d="M378.5 13.5L378.5 463.5" stroke="#89929F" stroke-width="0.375"/>
<path d="M360.5 13.5L360.5 463.5" stroke="#89929F" stroke-width="0.375"/>
<path d="M342.5 13.5L342.5 463.5" stroke="#89929F" stroke-width="0.375"/>
<path d="M324.5 13.5L324.5 463.5" stroke="#89929F" stroke-width="0.375"/>
<path d="M306.5 13.5L306.5 463.5" stroke="#89929F" stroke-width="0.375"/>
<path d="M288.5 13.5L288.5 463.5" stroke="#89929F" stroke-width="0.375"/>
<path d="M270.5 13.5L270.5 463.5" stroke="#89929F" stroke-width="0.375"/>
<path d="M252.5 13.5L252.5 463.5" stroke="#89929F" stroke-width="0.375"/>
<path d="M234.5 13.5L234.5 463.5" stroke="#89929F" stroke-width="0.375"/>
<path d="M216.5 13.5L216.5 463.5" stroke="#89929F" stroke-width="0.375"/>
<path d="M198.5 13.5L198.5 463.5" stroke="#89929F" stroke-width="0.375"/>
<path d="M180.5 13.5L180.5 463.5" stroke="#89929F" stroke-width="0.375"/>
<path d="M162.5 13.5L162.5 463.5" stroke="#89929F" stroke-width="0.375"/>
<path d="M144.5 13.5L144.5 463.5" stroke="#89929F" stroke-width="0.375"/>
<path d="M126.5 13.5L126.5 463.5" stroke="#89929F" stroke-width="0.375"/>
<path d="M108.5 13.5L108.5 463.5" stroke="#89929F" stroke-width="0.375"/>
<path d="M90.5 13.5L90.5 463.5" stroke="#89929F" stroke-width="0.375"/>
<path d="M72.5 13.5L72.5 463.5" stroke="#89929F" stroke-width="0.375"/>
<path d="M54.5 13.5L54.5 463.5" stroke="#89929F" stroke-width="0.375"/>
<path d="M36.5 13.5L36.5 463.5" stroke="#89929F" stroke-width="0.375"/>
<path d="M18.5 13.5L18.5 463.5" stroke="#89929F" stroke-width="0.375"/>
<path d="M0.5 13.5L0.49998 463.5" stroke="#89929F" stroke-width="0.375"/>
<path d="M864.5 49.5L0.499991 49.5" stroke="#89929F" stroke-width="0.375"/>
<path d="M864.5 67.5L0.499991 67.5" stroke="#89929F" stroke-width="0.375"/>
<path d="M864.5 85.5L0.499991 85.5" stroke="#89929F" stroke-width="0.375"/>
<path d="M864.5 103.5L0.499991 103.5" stroke="#89929F" stroke-width="0.375"/>
<path d="M864.5 121.5L0.499991 121.5" stroke="#89929F" stroke-width="0.375"/>
<path d="M864.5 139.5L0.499991 139.5" stroke="#89929F" stroke-width="0.375"/>
<path d="M864.5 157.5L0.499991 157.5" stroke="#89929F" stroke-width="0.375"/>
<path d="M864.5 175.5L0.499991 175.5" stroke="#89929F" stroke-width="0.375"/>
<path d="M864.5 193.5L0.499991 193.5" stroke="#89929F" stroke-width="0.375"/>
<path d="M864.5 211.5L0.499991 211.5" stroke="#89929F" stroke-width="0.375"/>
<path d="M864.5 229.5L0.499991 229.5" stroke="#89929F" stroke-width="0.375"/>
<path d="M864.5 247.5L0.499991 247.5" stroke="#89929F" stroke-width="0.375"/>
<path d="M864.5 265.5L0.499991 265.5" stroke="#89929F" stroke-width="0.375"/>
<path d="M864.5 283.5L0.499991 283.5" stroke="#89929F" stroke-width="0.375"/>
<path d="M864.5 301.5L0.499991 301.5" stroke="#89929F" stroke-width="0.375"/>
<path d="M864.5 319.5L0.499991 319.5" stroke="#89929F" stroke-width="0.375"/>
<path d="M864.5 337.5L0.499991 337.5" stroke="#89929F" stroke-width="0.375"/>
<path d="M864.5 355.5L0.499991 355.5" stroke="#89929F" stroke-width="0.375"/>
<path d="M864.5 373.5L0.499991 373.5" stroke="#89929F" stroke-width="0.375"/>
<path d="M864.5 391.5L0.499991 391.5" stroke="#89929F" stroke-width="0.375"/>
<path d="M864.5 409.5L0.499991 409.5" stroke="#89929F" stroke-width="0.375"/>
<path d="M864.5 427.5L0.499991 427.5" stroke="#89929F" stroke-width="0.375"/>
</g>
<defs>
<radialGradient id="paint0_radial_1254_51558" cx="0" cy="0" r="1" gradientUnits="userSpaceOnUse" gradientTransform="translate(432.5 238.5) rotate(90) scale(200.5 477.5)">
<stop offset="0.682292" stop-color="#03020D"/>
<stop offset="1" stop-color="#03020D" stop-opacity="0"/>
</radialGradient>
</defs>
</svg>